<svg id="Layer_1" data-name="Layer 1" xmlns="http://www.w3.org/2000/svg" viewBox="0 0 157.73 175.53">
    <defs>
        <style>
            .cls-1 {
            stroke-width: .5px;
            }

            .cls-1, .cls-2 {
            stroke-linecap: round;
            }

            .cls-1, .cls-2, .cls-3 {
            fill: none;
            }

            .cls-1, .cls-3 {
            stroke: #262424;π
            }

            .cls-4 {
            fill: #f8e5ca;
            }

            .cls-5 {
            fill: #efd0e1;
            }

            .cls-6 {
            fill: #fff;
            }

            .cls-7 {
            fill: #fff12d;
            }

            .cls-8 {
            fill: #f2ca30;
            }

            .cls-9 {
            fill: #a172ad;
            }

            .cls-10 {
            fill: #a9a238;
            }

            .cls-11 {
            fill: #aeb7dc;
            }

            .cls-12 {
            fill: #c0d77d;
            }

            .cls-13 {
            fill: #de8a41;
            }

            .cls-14 {
            fill: #d0dbc8;
            }

            .cls-15 {
            fill: #e0922e;
            }

            .cls-2 {
            stroke: #fff;
            stroke-width: 2.5px;
            }

            .cls-3 {
            stroke-width: .56px;
            }
        </style>
    </defs>
    <polygon class="cls-5" points="54.98 43.59 52.41 47.49 44.61 42.93 42.48 38.74 47.18 39.03 54.98 43.59"/>
    <polygon class="cls-3" points="54.98 43.59 52.41 47.49 44.61 42.93 42.48 38.74 47.18 39.03 54.98 43.59"/>
    <polygon class="cls-14" points="84.14 14.5 91.51 14.3 90.14 29.79 83.06 30.05 84.14 14.5"/>
    <polygon class="cls-3" points="84.14 14.5 91.51 14.3 90.14 29.79 83.06 30.05 84.14 14.5"/>
    <polygon class="cls-13" points="108.74 16.55 105.65 9.67 100.46 15.12 108.74 16.55"/>
    <polygon class="cls-3" points="108.74 16.55 105.65 9.67 100.46 15.12 108.74 16.55"/>
    <polygon class="cls-11" points="108.79 16.72 103.27 32.1 97.16 30.8 100.3 15.26 108.79 16.72"/>
    <polygon class="cls-3" points="108.79 16.72 103.27 32.1 97.16 30.8 100.3 15.26 108.79 16.72"/>
    <polygon class="cls-10" points="73.21 17.65 66.88 20.82 70.85 32.46 76.61 30.69 73.21 17.65"/>
    <polygon class="cls-3" points="73.21 17.65 66.88 20.82 70.85 32.46 76.61 30.69 73.21 17.65"/>
    <polygon class="cls-8" points="68.08 13.8 66.89 20.66 73.21 17.65 68.08 13.8"/>
    <polygon class="cls-3" points="68.08 13.8 66.89 20.66 73.21 17.65 68.08 13.8"/>
    <polygon class="cls-5" points="74.27 16.19 72.75 21.48 77.19 20.58 74.27 16.19"/>
    <polygon class="cls-3" points="74.27 16.19 72.75 21.48 77.19 20.58 74.27 16.19"/>
    <polygon class="cls-11" points="77.22 20.6 78.4 30.43 74.78 31.18 72.78 21.51 77.22 20.6"/>
    <polygon class="cls-3" points="77.22 20.6 78.4 30.43 74.78 31.18 72.78 21.51 77.22 20.6"/>
    <polygon class="cls-5" points="78.56 12.91 75.8 21.27 83.21 20.7 78.56 12.91"/>
    <polygon class="cls-3" points="78.56 12.91 75.8 21.27 83.21 20.7 78.56 12.91"/>
    <polygon class="cls-9" points="82.96 20.5 83.28 30.38 78.24 30.92 75.79 21.5 82.96 20.5"/>
    <polygon class="cls-3" points="82.96 20.5 83.28 30.38 78.24 30.92 75.79 21.5 82.96 20.5"/>
    <polygon class="cls-5" points="47.7 25.84 50.23 34.27 56.11 29.98 47.7 25.84"/>
    <polygon class="cls-3" points="47.7 25.84 50.23 34.27 56.11 29.98 47.7 25.84"/>
    <polygon class="cls-9" points="55.78 29.94 61.78 38.06 57.88 41.1 50.36 34.47 55.78 29.94"/>
    <polygon class="cls-3" points="55.78 29.94 61.78 38.06 57.88 41.1 50.36 34.47 55.78 29.94"/>
    <polygon class="cls-5" points="148.39 65.93 141.05 62.99 141.08 70.27 148.39 65.93"/>
    <polygon class="cls-3" points="148.39 65.93 141.05 62.99 141.08 70.27 148.39 65.93"/>
    <polygon class="cls-9" points="141.31 70.03 131.21 70.13 131.03 65.18 140.81 62.98 141.31 70.03"/>
    <polygon class="cls-3" points="141.31 70.03 131.21 70.13 131.03 65.18 140.81 62.98 141.31 70.03"/>
    <polygon class="cls-5" points="149.39 79.6 143.66 74.82 141.64 81.81 149.39 79.6"/>
    <polygon class="cls-3" points="149.39 79.6 143.66 74.82 141.64 81.81 149.39 79.6"/>
    <polygon class="cls-9" points="141.93 81.64 132.21 78.89 133.43 74.09 143.44 74.73 141.93 81.64"/>
    <polygon class="cls-3" points="141.93 81.64 132.21 78.89 133.43 74.09 143.44 74.73 141.93 81.64"/>
    <polygon class="cls-12" points="118.71 18.47 109.21 16.55 103.36 32.06 110.34 34.65 118.71 18.47"/>
    <polygon class="cls-3" points="118.71 18.47 109.21 16.55 103.36 32.06 110.34 34.65 118.71 18.47"/>
    <polygon class="cls-11" points="116.67 10.13 109.33 16.36 118.75 18.36 116.67 10.13"/>
    <polygon class="cls-3" points="116.67 10.13 109.33 16.36 118.75 18.36 116.67 10.13"/>
    <polygon class="cls-5" points="119.85 22.74 114.15 25.33 119.27 28.27 119.85 22.74"/>
    <polygon class="cls-3" points="119.85 22.74 114.15 25.33 119.27 28.27 119.85 22.74"/>
    <polygon class="cls-4" points="119.3 28.29 113.52 37.09 108.95 34.68 114.62 25.56 119.3 28.29"/>
    <polygon class="cls-3" points="119.3 28.29 113.52 37.09 108.95 34.68 114.62 25.56 119.3 28.29"/>
    <polygon class="cls-5" points="32.97 48.17 35.86 53.72 38.52 48.45 32.97 48.17"/>
    <polygon class="cls-3" points="32.97 48.17 35.86 53.72 38.52 48.45 32.97 48.17"/>
    <polygon class="cls-4" points="38.54 48.43 47.64 53.74 45.47 58.42 36.06 53.24 38.54 48.43"/>
    <polygon class="cls-3" points="38.54 48.43 47.64 53.74 45.47 58.42 36.06 53.24 38.54 48.43"/>
    <polygon class="cls-5" points="144.59 88.54 140.63 83.7 139.1 89.4 144.59 88.54"/>
    <polygon class="cls-3" points="144.59 88.54 140.63 83.7 139.1 89.4 144.59 88.54"/>
    <polygon class="cls-4" points="139.09 89.43 129.09 86.11 130.26 81.08 140.52 84.21 139.09 89.43"/>
    <polygon class="cls-3" points="139.09 89.43 129.09 86.11 130.26 81.08 140.52 84.21 139.09 89.43"/>
    <polygon class="cls-11" points="122.83 33.67 116.71 40.41 112.47 37 117.73 29.73 122.83 33.67"/>
    <polygon class="cls-3" points="122.83 33.67 116.71 40.41 112.47 37 117.73 29.73 122.83 33.67"/>
    <polygon class="cls-12" points="87.9 23.11 81.49 23.64 82.35 30.34 87.91 29.77 87.9 23.11"/>
    <polygon class="cls-3" points="87.9 23.11 81.49 23.64 82.35 30.34 87.91 29.77 87.9 23.11"/>
    <polygon class="cls-13" points="87.89 23.15 81.62 23.63 84.26 17.72 87.89 23.15"/>
    <polygon class="cls-3" points="87.89 23.15 81.62 23.63 84.26 17.72 87.89 23.15"/>
    <polygon class="cls-12" points="129.5 36.73 125.65 31.43 116.78 39.55 119.77 44.26 129.5 36.73"/>
    <polygon class="cls-3" points="129.5 36.73 125.65 31.43 116.78 39.55 119.77 44.26 129.5 36.73"/>
    <polygon class="cls-13" points="129.5 36.47 125.71 31.54 132.14 29.46 129.5 36.47"/>
    <polygon class="cls-3" points="129.5 36.47 125.71 31.54 132.14 29.46 129.5 36.47"/>
    <polygon class="cls-8" points="102.11 6.31 100.32 .68 97.42 5.51 102.11 6.31"/>
    <polygon class="cls-3" points="102.11 6.31 100.32 .68 97.42 5.51 102.11 6.31"/>
    <polygon class="cls-4" points="101.99 6.47 97.54 5.79 91.36 32.15 96.55 33.33 101.99 6.47"/>
    <polygon class="cls-3" points="101.99 6.47 97.54 5.79 91.36 32.15 96.55 33.33 101.99 6.47"/>
    <polygon class="cls-8" points="151.61 74.98 157.05 72.66 151.96 70.23 151.61 74.98"/>
    <polygon class="cls-3" points="151.61 74.98 157.05 72.66 151.96 70.23 151.61 74.98"/>
    <polygon class="cls-4" points="151.44 74.87 151.7 70.38 124.86 66.74 124.19 72.02 151.44 74.87"/>
    <polygon class="cls-3" points="151.44 74.87 151.7 70.38 124.86 66.74 124.19 72.02 151.44 74.87"/>
    <polygon class="cls-8" points="84.09 14.43 87.33 7.93 91.48 14.08 84.09 14.43"/>
    <polygon class="cls-3" points="84.09 14.43 87.33 7.93 91.48 14.08 84.09 14.43"/>
    <polygon class="cls-10" points="96.62 23 93.33 15.21 89.19 22.86 96.62 23"/>
    <polygon class="cls-3" points="96.62 23 93.33 15.21 89.19 22.86 96.62 23"/>
    <polygon class="cls-8" points="96.55 23.13 95.44 30.44 89.46 29.83 89.19 23.05 96.55 23.13"/>
    <polygon class="cls-3" points="96.55 23.13 95.44 30.44 89.46 29.83 89.19 23.05 96.55 23.13"/>
    <polygon class="cls-4" points="61.15 38.69 47.1 17.69 46.55 10.37 51.9 10.27 68.81 34.32 61.15 38.69"/>
    <polygon class="cls-3" points="61.15 38.69 47.1 17.69 46.55 10.37 51.9 10.27 68.81 34.32 61.15 38.69"/>
    <g>
        <path class="cls-6" d="M49.11,17.54c.49,1.28,1.99,1.95,3.35,1.5,1.36-.46,2.07-1.87,1.58-3.16-.49-1.28-1.99-1.95-3.35-1.49-1.36,.46-2.07,1.87-1.58,3.16"/>
        <path class="cls-3" d="M49.11,17.54c.49,1.28,1.99,1.95,3.35,1.5,1.36-.46,2.07-1.87,1.58-3.16-.49-1.28-1.99-1.95-3.35-1.49-1.36,.46-2.07,1.87-1.58,3.16Z"/>
        <polyline class="cls-6" points="51.27 15.42 51.58 16.71 49.89 17.63"/>
        <polyline class="cls-3" points="51.27 15.42 51.58 16.71 49.89 17.63"/>
        <polygon class="cls-5" points="111.34 28.78 103.43 26.58 101.68 31.67 108.64 34.3 111.34 28.78"/>
        <polygon class="cls-3" points="111.34 28.78 103.43 26.58 101.68 31.67 108.64 34.3 111.34 28.78"/>
        <polygon class="cls-8" points="124.99 25.88 117.58 29.83 123.05 33.81 124.99 25.88"/>
        <polygon class="cls-3" points="124.99 25.88 117.58 29.83 123.05 33.81 124.99 25.88"/>
        <polygon class="cls-11" points="134.69 51.3 125.99 54.71 123.85 49.86 132.01 45.61 134.69 51.3"/>
        <polygon class="cls-3" points="134.69 51.3 125.99 54.71 123.85 49.86 132.01 45.61 134.69 51.3"/>
        <polygon class="cls-8" points="140.34 45.27 131.83 45.63 134.82 51.52 140.34 45.27"/>
        <polygon class="cls-3" points="140.34 45.27 131.83 45.63 134.82 51.52 140.34 45.27"/>
        <polygon class="cls-11" points="136.45 59.62 128.67 61.67 127.31 57.31 134.72 54.48 136.45 59.62"/>
        <polygon class="cls-3" points="136.45 59.62 128.67 61.67 127.31 57.31 134.72 54.48 136.45 59.62"/>
        <polygon class="cls-8" points="141.89 55.02 134.56 54.49 136.54 59.82 141.89 55.02"/>
        <polygon class="cls-3" points="141.89 55.02 134.56 54.49 136.54 59.82 141.89 55.02"/>
        <polygon class="cls-11" points="139.19 64.28 131.17 64.98 130.57 60.45 138.36 58.93 139.19 64.28"/>
        <polygon class="cls-3" points="139.19 64.28 131.17 64.98 130.57 60.45 138.36 58.93 139.19 64.28"/>
        <polygon class="cls-8" points="145.33 60.67 138.2 58.9 139.24 64.49 145.33 60.67"/>
        <polygon class="cls-3" points="145.33 60.67 138.2 58.9 139.24 64.49 145.33 60.67"/>
        <polygon class="cls-7" points="109.86 22.26 103.26 26.65 111.64 28.79 109.86 22.26"/>
        <polygon class="cls-3" points="109.86 22.26 103.26 26.65 111.64 28.79 109.86 22.26"/>
        <polygon class="cls-5" points="135.64 83.27 137.54 75.28 132.38 73.73 130.03 80.8 135.64 83.27"/>
        <polygon class="cls-3" points="135.64 83.27 137.54 75.28 132.38 73.73 130.03 80.8 135.64 83.27"/>
        <polygon class="cls-7" points="142.1 81.54 137.46 75.11 135.65 83.58 142.1 81.54"/>
        <polygon class="cls-3" points="142.1 81.54 137.46 75.11 135.65 83.58 142.1 81.54"/>
        <polygon class="cls-14" points="125.53 42.3 120.46 37.03 116.6 40.17 120.72 45.34 125.53 42.3"/>
        <polygon class="cls-3" points="125.53 42.3 120.46 37.03 116.6 40.17 120.72 45.34 125.53 42.3"/>
        <polygon class="cls-7" points="127.58 36.6 120.29 37.01 125.76 42.44 127.58 36.6"/>
        <polygon class="cls-3" points="127.58 36.6 120.29 37.01 125.76 42.44 127.58 36.6"/>
        <polygon class="cls-14" points="137.53 76.53 136.88 69.25 131.9 69.29 131.88 75.9 137.53 76.53"/>
        <polygon class="cls-3" points="137.53 76.53 136.88 69.25 131.9 69.29 131.88 75.9 137.53 76.53"/>
        <polygon class="cls-7" points="142.7 73.37 136.76 69.13 137.62 76.79 142.7 73.37"/>
        <polygon class="cls-3" points="142.7 73.37 136.76 69.13 137.62 76.79 142.7 73.37"/>
        <polygon class="cls-5" points="129.64 47.11 125.08 41.31 120.9 44.31 124.52 49.94 129.64 47.11"/>
        <polygon class="cls-3" points="129.64 47.11 125.08 41.31 120.9 44.31 124.52 49.94 129.64 47.11"/>
        <polygon class="cls-7" points="132.27 41.34 124.92 41.28 129.86 47.27 132.27 41.34"/>
        <polygon class="cls-3" points="132.27 41.34 124.92 41.28 129.86 47.27 132.27 41.34"/>
        <polygon class="cls-14" points="71.33 25.98 63.71 29.96 66.09 35.12 73.39 32.25 71.33 25.98"/>
        <polygon class="cls-3" points="71.33 25.98 63.71 29.96 66.09 35.12 73.39 32.25 71.33 25.98"/>
        <polygon class="cls-13" points="64.9 22.7 63.81 29.78 71.1 25.8 64.9 22.7"/>
        <polygon class="cls-3" points="64.9 22.7 63.81 29.78 71.1 25.8 64.9 22.7"/>
        <polygon class="cls-14" points="46.05 42.89 42.14 50.55 47.08 53.38 51.36 46.8 46.05 42.89"/>
        <polygon class="cls-3" points="46.05 42.89 42.14 50.55 47.08 53.38 51.36 46.8 46.05 42.89"/>
        <polygon class="cls-13" points="38.91 43.95 42.12 50.35 45.75 42.88 38.91 43.95"/>
        <polygon class="cls-3" points="38.91 43.95 42.12 50.35 45.75 42.88 38.91 43.95"/>
        <polygon class="cls-4" points="58.76 40.04 54.98 43.83 47.41 37.13 46.71 32.69 51.19 33.34 58.76 40.04"/>
        <polygon class="cls-3" points="58.76 40.04 54.98 43.83 47.41 37.13 46.71 32.69 51.19 33.34 58.76 40.04"/>
    </g>
    <path class="cls-15" d="M125.04,99.54c-7.18-.98-92.9-26.33-96.78-29.31-3.87-2.98-11.09-21.67-11.09-21.67h-.03c.72-.7,.93-1.94,.43-3.12-.63-1.48-2.13-2.3-3.36-1.82-1.23,.48-1.71,2.07-1.09,3.56,.43,1.02,1.28,1.71,2.17,1.9,1.08,2.64,6.03,14.82,6.03,17.49,0,3-3.12,5-6.59,2-1.15-.99-8.21-10.79-9.72-12.89,.42-.84,.29-2.01-.44-2.98-.98-1.3-2.64-1.75-3.71-1-1.07,.75-1.15,2.4-.18,3.71,.7,.93,1.75,1.42,2.69,1.34,.59,.86,7.31,10.67,9.63,14.49,2.43,4-.35,8.83-.35,8.83-2.08,6.5,2.08,9.5,6.76,11.5,4.68,2,48.36,18,48.36,18h75.92c-1.04-8.33-11.48-9.04-18.66-10.02"/>
    <g>
        <path class="cls-15" d="M102.57,78.67c-.28-5.46-5.81-6.94-8.95-5.62-4.2,1.76-5.83,5.86-5.16,9.52,.76,4.21,4.59,7.66,9.48,8,10.37,.71,15.99-9.43,14.58-18.52-1.2-7.72-8.91-14.89-18.45-14.25-21.25,1.42-23.74,23.07-20.01,33.3,5,13.7,21.19,20.64,36.11,15.61,6.14-2.07,12.3-7.4,14.1-10,5.73-8.28,9.87-24.48,5.14-37.47-8.05-22.06-33.53-33.55-56.93-25.67-18.21,6.14-29.68,22.66-30.12,39.89l28.39,9.33"/>
        <path class="cls-2" d="M102.57,78.67c-.28-5.46-5.81-6.94-8.95-5.62-4.2,1.76-5.83,5.86-5.16,9.52,.76,4.21,4.59,7.66,9.48,8,10.37,.71,15.99-9.43,14.58-18.52-1.2-7.72-8.91-14.89-18.45-14.25-21.25,1.42-23.74,23.07-20.01,33.3,5,13.7,21.19,20.64,36.11,15.61,6.14-2.07,12.3-7.4,14.1-10,5.73-8.28,9.87-24.48,5.14-37.47-8.05-22.06-33.53-33.55-56.93-25.67-18.21,6.14-29.68,22.66-30.12,39.89l28.39,9.33"/>
        <path class="cls-1" d="M41.49,72.48c.44-17.56,12.2-33.95,30.72-40.2,23.78-8.03,49.7,3.69,57.89,26.18,4.82,13.24,.65,29.84-5.17,38.27"/>
        <polygon class="cls-12" points="136.52 56.79 134.26 51.44 128.28 54.04 130.35 58.65 136.52 56.79"/>
        <polygon class="cls-3" points="136.52 56.79 134.26 51.44 128.28 54.04 130.35 58.65 136.52 56.79"/>
        <polygon class="cls-13" points="136.49 56.79 134.3 51.54 140.52 52.17 136.49 56.79"/>
        <polygon class="cls-3" points="136.49 56.79 134.3 51.54 140.52 52.17 136.49 56.79"/>
    </g>
    <path class="cls-15" d="M26.61,138.67c-1.96,2.96-4.79,5.92-8.26,5.94-3.18,.01-4.3-2.59-3.76-5.67,.93-5.31,7.12-13.34,12.74-13.37,1.41,0,3.01,.76,2.72,2.43-.16,.9-.98,1.8-1.89,1.81-.78,0-1.28-.72-1.14-1.49,.12-.68,.63-.99,.68-1.29,.08-.47-.49-.51-.82-.51-4.13,.02-9.08,11.13-9.61,14.12-.26,1.5,.17,3.04,1.78,3.03,2.85-.01,5.25-3.11,6.83-5.51l.74,.51Z"/>
    <g>
        <path class="cls-15" d="M33.13,132.81c.55-1.03,2.25-4.12,2.43-5.15,.08-.43-.1-.85-.55-.85-1.28,0-3.92,3.53-4.7,4.69l-.74-.47c1.56-2.1,3.85-5.49,6.49-5.51,1.57,0,2.31,1.4,2.05,2.9-.36,2.06-2,4.63-3.08,6.56l-1.93,3.48c-.38,.73-1.82,3.3-1.95,4.07-.06,.34,.12,.73,.49,.73,1.57,0,4.47-3.83,5.32-5.16l.75,.42c-1.42,2.23-4.23,6.01-6.91,6.02-1.7,0-2.44-1.4-2.15-3.07,.31-1.8,1.87-4.12,2.83-5.79l1.66-2.87Zm4.88-14.91c.19-1.11,1.13-2.02,2.21-2.02,1.12,0,1.74,.89,1.55,2-.18,1.03-1.2,1.89-2.23,1.89-.99,0-1.72-.8-1.53-1.87"/>
        <path class="cls-15" d="M51.12,120.06l-2.82,5.96,3.22-.02-.45,.94h-3.22s-.52,1.13-.52,1.13c-.99,2.1-5.6,12.43-5.87,13.98-.1,.6-.12,1.16,.5,1.15,1.69,0,4.25-4.26,5.19-5.63l.74,.47c-1.62,2.45-3.85,6.44-7.07,6.45-1.61,0-2.56-1.19-2.27-2.86,.31-1.8,1.61-4.46,2.41-6.22l3.83-8.45h-3.27s.5-.93,.5-.93h3.27s2.98-5.98,2.98-5.98h2.85Z"/>
        <path class="cls-15" d="M61.45,120.02l-2.82,5.96,3.22-.02-.45,.94-3.22,.02-.52,1.12c-.99,2.1-5.6,12.43-5.87,13.97-.11,.6-.12,1.16,.5,1.15,1.69,0,4.25-4.25,5.19-5.63l.75,.47c-1.62,2.45-3.85,6.44-7.07,6.45-1.61,0-2.56-1.19-2.27-2.86,.31-1.8,1.6-4.46,2.4-6.21l3.83-8.45-3.26,.02,.49-.95h3.27s2.98-5.98,2.98-5.98h2.85Z"/>
        <path class="cls-15" d="M76.4,125.9h2.93s-2.71,5.09-2.71,5.09c-1.17,2.19-4.21,8.54-4.65,11.06-.07,.38-.14,1.03,.36,1.03,1.4,0,4.18-4.56,5.02-5.84l.8,.38c-1.67,2.49-3.74,6.74-6.92,6.75-1.49,0-2.32-.89-2.05-2.43,.15-.86,.54-1.67,.8-2.44l-.07-.08c-1.69,2.36-4.17,4.98-7.02,4.99-2.77,.01-4.27-2.25-3.79-5.03,.97-5.53,7.85-13.99,13.64-14.01,1.53,0,2.45,.89,2.74,2.3l.93-1.76Zm-14.53,14.66c-.23,1.28,.07,2.91,1.52,2.9,2.93-.01,5.67-4.09,7.21-6.54,1.38-2.23,3.43-5.92,3.85-8.36,.2-1.16-.35-2.27-1.55-2.26-4.13,.02-10.43,10.79-11.03,14.26"/>
        <path class="cls-15" d="M89.06,125.28c1.53,0,3.89,.66,3.54,2.68-.11,.64-.61,1.11-1.23,1.12-2.11,0,.5-2.87-2.43-2.86-1.4,0-2.95,1.04-3.22,2.62-.52,3,3.73,5.59,3.07,9.83-.57,3.73-3.96,5.62-7.3,5.64-2.03,0-4.85-.83-4.4-3.44,.14-.82,.53-1.59,1.35-1.59,.66,0,1.14,.55,1.01,1.28-.06,.38-.26,.77-.33,1.16-.22,1.28,1.28,1.66,2.27,1.66,1.94-.01,3.78-1.09,4.16-3.23,.53-3-3.72-6.1-3.08-9.79,.58-3.3,3.61-5.06,6.58-5.08"/>
        <path class="cls-15" d="M98.56,131.4c-1.12,2.4-3.88,8.02-4.28,10.33-.09,.51-.05,1.24,.57,1.24,1.36,0,4.4-4.13,5.16-5.42l.87,.47c-1.61,2.36-4.06,6.23-7.12,6.24-1.94,0-2.63-1.48-2.3-3.37,.28-1.59,1.99-5.23,2.77-6.86l6.72-14.36c.2-.43,.64-1.29,.72-1.76,.27-1.54,1.22-1.27,.28-1.35l.41-.94,3.82-.34-7.61,16.13Z"/>
        <path class="cls-15" d="M101.05,137.97c.87-4.97,6.2-12.78,11.77-12.8,3.84-.02,5.12,3.31,4.49,6.91-.87,5.01-6.24,12.09-11.61,12.12-3.6,.01-5.29-2.54-4.65-6.23m13.78-8.71c.27-1.54-.27-3.17-1.97-3.16-4.34,.02-8.59,10.44-9.21,13.95-.34,1.93,.31,3.21,2.25,3.2,4.54-.02,8.3-10.39,8.92-13.99"/>
    </g>
    <g>
        <path class="cls-15" d="M106.26,115.1c.17-1.21-2.7-1.22-3.9,.5-.95,1.35-.79,4.14-3.85,1.52-.91-1.15-5.55-5.89-9.04-2.97-1.66,1.39-2.57,3.19-2.59,5.29-.01,1.71,.49,3.57,2.37,6.06,.77,1.03,1.4,1.22,2.11,1.42,.49,.14,1.13-.63,.69-.6-.37,.02-1.96-1.47-2.8-3.01-.81-1.49-1.31-2.55-1.15-4.08,.25-2.45,1.97-4.47,4.3-4.47s3.6,1.92,5.72,3.91c4.26,4,7.84-1.51,8.13-3.57"/>
        <path class="cls-15" d="M111.13,128.65c.12-.85,.91-1.5,2.49-1.5h10.46s-10.34,12.47-6.64,15.93c5.02,4.7,19.28-4.99,18.55-14.23-.35-4.39-3.89-4.05-5.43-2.75-9.74,8.21-5.18,17.96-.49,18.12,10.37,.36,13.53-17.99,11.18-18.6-3.08-.81-2.76,2.59-1.46,2.43,1.94-.24,0,7.94-3.4,11.18-7.35,7-8.88,1.91-9.07-4.05-.13-4.05,3.79-8.21,5.59-7.62,2.6,.87,1.64,4.99-1.38,8.59-4.21,5.02-9.72,7.91-11.83,5.16-3.05-3.99,6.97-15.04,8.75-16.17h-15.26c-1.46,0-5.04,2.56-2.76,5.7,.46,.64,1.5,.92,2.08,.83,.62-.1,1.1-.35,1.36-.77,.82-1.33-.19-2.04-.93-1.72-.51,.22-.13,.41-.54,.92-.51,.63-1.37-.76-1.27-1.43"/>
    </g>
    <g>
        <path class="cls-15" d="M15.8,162.33c0,2.52,1.46,2.76,4.24,3.11,3.47,.45,5.61,1.3,5.61,4.76,0,2.4-1.27,5.33-6.53,5.33-1.63,0-3.84-.45-4.95-.94v-1.53c1.13,.38,2.52,.99,4.97,.99,3.68,0,4.79-1.72,4.79-3.84,0-2.52-1.04-3.02-3.98-3.4-4.17-.52-5.78-1.48-5.78-4.5,0-2.05,.99-4.93,5.94-4.93,2.17,0,3.63,.38,4.6,.83v1.58c-1.6-.68-2.88-.92-4.62-.92-3.49,0-4.29,1.6-4.29,3.47Z"/>
        <path class="cls-15" d="M39.91,157.61l-6.25,17.92h-1.18l-6.25-17.92h1.82l5.02,15.23,5.02-15.23h1.82Z"/>
        <path class="cls-15" d="M51.34,166.83h-7.83v6.98h8.65v1.49h-10.25v-17.68h10.25v1.48h-8.65v6.25h7.83v1.49Z"/>
        <path class="cls-15" d="M65.96,175.29l-9.5-14.4,.05,14.4h-1.6v-17.68h1.2l9.5,14.4-.05-14.4h1.6v17.68h-1.2Z"/>
        <path class="cls-15" d="M70.25,175.29v-17.68h4.81c5.78,0,7.45,3.82,7.45,8.84s-1.67,8.84-7.45,8.84h-4.81Zm1.6-1.49h3.3c4.24,0,5.66-3.11,5.66-7.36s-1.41-7.36-5.66-7.36h-3.3v14.71Z"/>
        <path class="cls-15" d="M85.24,157.61h5.59c4.13,0,5.49,2.1,5.49,4.67,0,1.53-.78,3.02-2.31,3.68,2.03,.54,2.9,2.48,2.9,4.36,0,2.76-1.51,4.97-5.92,4.97h-5.75v-17.68Zm5.82,1.48h-4.22v6.25h4.41c2.66,0,3.32-1.56,3.32-3.07s-.52-3.18-3.51-3.18Zm-4.22,14.71h4.36c3.32,0,3.96-1.79,3.96-3.49,0-2.38-1.01-3.49-3.91-3.49h-4.41v6.98Z"/>
        <path class="cls-15" d="M98.93,166.45c0-4.62,.83-9.08,6.6-9.08s6.6,4.46,6.6,9.08-.83,9.08-6.6,9.08-6.6-4.46-6.6-9.08Zm11.5,0c0-4.24-.64-7.59-4.9-7.59s-4.9,3.35-4.9,7.59,.64,7.59,4.9,7.59,4.9-3.35,4.9-7.59Z"/>
        <path class="cls-15" d="M116.47,175.29h-1.6v-17.68h5.54c4.41,0,5.78,1.93,5.78,4.97,0,2.36-.82,4.05-3.25,4.69l4.22,8.02h-1.86l-3.96-7.76c-.26,.02-.52,.02-.78,.02h-4.08v7.73Zm0-9.22h4.36c3.14,0,3.61-1.6,3.61-3.49s-.47-3.49-3.61-3.49h-4.36v6.98Z"/>
        <path class="cls-15" d="M128.7,166.45c0-5.02,1.67-9.08,6.95-9.08,2.45,0,3.98,.5,4.95,.99v1.6c-1.84-.75-3.04-1.11-4.95-1.11-3.87,0-5.26,3.32-5.26,7.59s1.39,7.59,5.26,7.59c1.34,0,2.99-.12,3.82-.52v-6.04h-3.7v-1.48h5.3v8.56c-1.2,.57-2.95,.97-5.42,.97-5.28,0-6.95-4.05-6.95-9.08Z"/>
    </g>
</svg>