<svg xmlns="http://www.w3.org/2000/svg" viewBox="0 0 383.7 364.42"><defs><style>.a{fill:#e30613;}</style></defs><path class="a" d="M115.79,262.17a110.41,110.41,0,0,1,106.72-186,13.73,13.73,0,0,0,15.9-6.49c3.94-6.82,25.62-45,29.23-51.48,5-8.94-.22-18.16-11.57-18.16H182.13C81.54,0,0,81.59,0,182.18A181.29,181.29,0,0,0,36.58,291.66C29,304.84,8.25,341.76,1.72,353.16c-3.46,6-1.71,11.26,5.85,11.26H63c6.65,0,9.57-3,12.66-8.36,3.44-6.29,33.24-58.81,42.27-74.39,2.91-5,6.16-11.6-2.15-19.5"/><path class="a" d="M267.9,102.25A110.42,110.42,0,0,1,161.19,288.3a13.72,13.72,0,0,0-15.9,6.49c-3.95,6.81-25.62,45-29.23,51.47-5,8.94.22,18.16,11.56,18.16h73.95c100.58,0,182.13-81.59,182.13-182.18A181.31,181.31,0,0,0,347.12,72.76c7.54-13.18,28.33-50.1,34.85-61.49C385.44,5.21,383.68,0,376.12,0H320.69C314,0,311.12,3,308,8.36c-3.44,6.29-33.25,58.81-42.27,74.39-2.91,5-6.17,11.6,2.14,19.5"/><path class="a" d="M202.31,119.64a10.48,10.48,0,1,1-10.48-10.48,10.49,10.49,0,0,1,10.48,10.48"/><rect class="a" x="130.16" y="224.43" width="123.41" height="14.99"/><path class="a" d="M111.25,195.77a104.39,104.39,0,0,0,11.83,14.08l7.18,7.76H253.72l7.06-7.76a111,111,0,0,0,11.82-14.08c16.88-25.16-3.12-51.68-26.22-49.93-.43,0-.85,0-1.27.07-.72-1.17-1.52-2.36-2.43-3.57-7.39-9.85-19.76-14.23-32.28-11.43a33.19,33.19,0,0,0-18.47,11.18,33.21,33.21,0,0,0-18.48-11.18c-12.52-2.8-24.89,1.58-32.28,11.43-.91,1.21-1.71,2.4-2.43,3.57l-1.26-.07c-21.06-2.24-44.13,23.76-26.23,49.93m72.84-36.38c-14.12-1.12-23.12-5.25-30.56-8.68l-.08,0c3.94-4.81,10.15-6.8,16.76-5.32,5.59,1.25,12.13,5.46,13.83,13.51,0,.14,0,.32.05.52m46.31-8.71-.08,0c-7.44,3.43-16.44,7.56-30.56,8.68,0-.2,0-.38.05-.52,1.7-8.05,8.25-12.26,13.83-13.51,6.61-1.48,12.82.51,16.76,5.32m-6,52.13c6.28-6.65,13.72-15.7,15.61-18.07,1.74-2.2,10.49-11.61,10-23.86,10.63,1.38,14,10.17,14,14.72a22.49,22.49,0,0,1-3.73,11.87A103.56,103.56,0,0,1,250,199.73l-2.83,3.08Zm-25-28.55a95.65,95.65,0,0,0,35.45-9.33c-.84,3.29-4.28,8-5.65,9.64-5.12,6.29-19,21.78-25.22,28.24H199.4s-.05-22.5,0-28.55m-19.53,28.55c-6.22-6.46-21.51-23.57-24.21-27s-5.81-7.63-6.66-10.92a95.71,95.71,0,0,0,35.46,9.33c0,6.05,0,28.55,0,28.55Zm-60.1-27.21c0-6.56,5.32-13.59,14-14.72-.46,10.81,5.14,17.65,9.26,22.92,3.91,5,10,12.36,16.33,19h-22.7l-2.83-3.08a101.69,101.69,0,0,1-10.37-12.26,22.24,22.24,0,0,1-3.74-11.87"/></svg>